<svg xmlns="http://www.w3.org/2000/svg" xmlns:xlink="http://www.w3.org/1999/xlink" version="1.1" x="0px" y="0px" viewBox="0 0 100 125" enable-background="new 0 0 100 100" xml:space="preserve"><g><path fill="none" d="M42.857,55.949c-0.397-0.027-0.808-0.056-1.276-0.088c0.263,1.078,0.493,2.036,0.731,2.992   c0.289,1.159,0.291,1.158,1.637,1.038C43.585,58.578,43.225,57.279,42.857,55.949z"/><path fill="none" d="M40.333,55.762c-0.459-0.032-0.929-0.064-1.573-0.109c0.304,1.2,0.603,2.269,0.841,3.352   c0.239,1.09,0.491,1.247,1.704,0.887c-0.163-0.665-0.332-1.331-0.489-1.999C40.652,57.198,40.5,56.5,40.333,55.762z"/><path fill="none" d="M37.074,55.52c-0.549-0.072-1.104-0.09-1.85-0.141c0.465,1.542,0.853,2.875,1.28,4.195   c0.059,0.182,0.297,0.405,0.476,0.429c0.511,0.069,1.034,0.044,1.584,0.057c-0.385-1.495-0.729-2.864-1.102-4.226   C37.425,55.7,37.219,55.539,37.074,55.52z"/><path fill="none" d="M32.496,55.322c-0.052,0-0.103,0.023-0.27,0.063c0.501,1.465,0.982,2.87,1.472,4.305   c0.49,0.034,1.026,0.071,1.569,0.108c-0.35-1.102-0.687-2.141-1.008-3.184C33.858,55.312,33.863,55.31,32.496,55.322z"/><path fill="none" d="M38.345,76.099c-0.187,0.097-0.365,0.209-0.542,0.311c0.748,1.98,1.482,3.924,2.238,5.925   c0.72-0.315,1.468-0.642,2.23-0.975c-0.604-2.176-1.178-4.248-1.768-6.375C39.813,75.34,39.078,75.717,38.345,76.099z"/><path fill="none" d="M43.885,73.697c-0.741,0.302-1.575,0.641-2.474,1.008c1.374,1.773,1.524,3.964,2.136,6.031   c0.35-0.163,0.58-0.31,0.832-0.38c0.679-0.188,0.781-0.53,0.61-1.227C44.553,77.346,44.248,75.531,43.885,73.697z"/><path fill="none" d="M29.407,55.239c0.156,0.431,0.324,0.85,0.458,1.281c0.143,0.459,0.26,0.927,0.374,1.395   c0.354,1.452,0.553,1.599,2.079,1.516c-0.419-1.085-0.883-2.16-1.248-3.267C30.711,55.079,30.63,54.991,29.407,55.239z"/><path fill="none" d="M46.841,56.241c-1.007-0.069-1.906-0.131-2.896-0.2c0.383,1.015,0.743,1.972,1.164,3.089   C45.719,58.113,46.243,57.24,46.841,56.241z"/><path fill="none" d="M24.678,55.205c-0.046-0.122-0.197-0.277-0.314-0.29c-0.624-0.07-1.253-0.099-2.014-0.151   c0.262,0.86,0.417,1.539,0.674,2.177c0.746,1.851,0.355,1.722,2.687,1.669c0.05-0.001,0.099-0.032,0.253-0.086   c-0.25-0.571-0.504-1.101-0.714-1.648C25.04,56.326,24.885,55.756,24.678,55.205z"/><path fill="none" d="M6.668,53.888c0.821,1.797,1.601,3.506,2.431,5.323c0.625-0.035,1.375-0.078,2.103-0.119   c-0.496-1.665-0.957-3.212-1.439-4.831C8.859,54.152,7.831,54.028,6.668,53.888z"/><path fill="none" d="M11.259,54.332c0.512,1.487,0.969,2.852,1.464,4.202c0.065,0.178,0.323,0.405,0.492,0.406   c0.764,0.003,1.529-0.068,2.184-0.106c-0.393-1.374-0.77-2.691-1.177-4.111C13.393,54.614,12.398,54.482,11.259,54.332z"/><path fill="none" d="M19.318,54.9c0.463,1.116,0.888,2.148,1.319,3.178c0.276,0.659,0.743,0.769,1.337,0.469   c-0.297-0.9-0.595-1.786-0.881-2.676C20.73,54.741,20.734,54.74,19.318,54.9z"/><path fill="none" d="M47.904,76.434c-0.07-1.381-0.16-2.761-0.252-4.288c-0.457,0.158-0.76,0.252-1.056,0.366   c-1.226,0.47-1.249,0.476-1.034,1.765c0.284,1.701,0.61,3.394,0.92,5.103c1.46-0.428,1.453-0.428,1.396-1.743   C47.861,77.237,47.924,76.834,47.904,76.434z"/><path fill="none" d="M27.55,54.995c-0.443-0.058-0.892-0.072-1.567-0.119c0.433,1.046,0.901,1.898,1.133,2.811   c0.271,1.067,0.983,1.169,1.998,1.199c-0.421-1.275-0.807-2.464-1.216-3.645C27.859,55.128,27.678,55.011,27.55,54.995z"/><path fill="none" d="M17.645,54.754c-0.643,0.012-1.25,0.023-1.999,0.037c0.406,1.052,0.685,2.038,1.153,2.925   c0.672,1.272,0.731,1.241,2.256,0.975c-0.281-0.683-0.558-1.29-0.781-1.916C18.041,56.127,17.862,55.461,17.645,54.754z"/><path fill="none" d="M53.406,69.842c-0.737,0.335-1.354,0.615-1.835,0.834c0.751,2.131,0.104,4.203,0.179,6.312   c1.935-0.592,1.683-0.389,1.647-2.062c-0.027-1.227,0.036-2.456,0.049-3.685C53.449,70.804,53.422,70.367,53.406,69.842z"/><path fill="none" d="M92.493,50.341c-0.371-0.384-0.632-0.737-0.968-0.988c-1.866-1.396-3.676-2.887-5.646-4.121   c-3.296-2.065-6.716-3.93-10.051-5.933c-4.232-2.543-8.404-5.187-12.653-7.7c-5.022-2.97-9.768-6.329-14.434-9.819   c-2.11-1.578-4.372-2.952-6.565-4.419c-0.041,0.041-0.081,0.081-0.122,0.122c0.527,1.25,1.064,2.496,1.577,3.752   c0.801,1.96,1.62,3.914,2.366,5.895c0.81,2.155,1.551,4.336,2.311,6.51c0.407,1.164,0.829,2.325,1.174,3.507   c0.284,0.974-0.352,2.2-1.131,2.228c-1.017,0.036-2.042,0.049-3.054-0.039c-4.411-0.386-8.814-0.857-13.227-1.21   c-3.879-0.31-7.768-0.715-11.65-0.689c-3.669,0.024-7.286-0.368-10.922-0.647c-0.47-0.036-0.94-0.065-1.344-0.093   c-0.364,5.272-0.722,10.467-1.087,15.76c2.847,0.196,5.547,0.459,8.252,0.552c4.451,0.152,8.91,0.113,13.359,0.303   c5.579,0.239,11.154,0.605,16.726,0.982c0.849,0.057,1.672,0.471,2.51,0.709c0.737,0.209,0.74,0.678,0.452,1.246   c-0.947,1.865-1.819,3.773-2.866,5.58c-2.151,3.712-4.4,7.367-6.602,11.049c-0.235,0.393-0.43,0.81-0.644,1.216   c0.563-0.113,0.978-0.358,1.42-0.534c2.641-1.05,5.287-2.086,7.932-3.122c1.373-0.538,2.794-0.979,4.116-1.621   c3.812-1.849,7.556-3.84,11.384-5.657c3.024-1.436,6.119-2.726,9.205-4.028c3.309-1.396,6.665-2.683,9.962-4.107   c2.658-1.148,5.257-2.434,7.885-3.651C90.903,51.027,91.657,50.709,92.493,50.341z"/><path fill="none" d="M82.676,57.588c-0.057,1.684-0.218,3.364-0.329,5.046c-0.013,0.195,0.021,0.394,0.048,0.812   c0.553-0.457,1.256-0.745,1.33-1.147c0.4-2.177,0.644-4.383,0.965-6.745c-0.436,0.23-0.722,0.439-1.042,0.537   C82.883,56.325,82.701,56.835,82.676,57.588z"/><path fill="none" d="M80.074,58.407c0.023,1.635-0.032,3.27-0.063,4.906c-0.007,0.389-0.051,0.778-0.081,1.222   c0.686-0.135,1.009-0.433,1.065-1.034c0.164-1.762,0.35-3.522,0.524-5.283c0.03-0.309,0.044-0.619,0.065-0.929   C81.051,57.669,80.059,57.317,80.074,58.407z"/><path fill="none" d="M48.908,71.647c0.119,1.151,0.274,2.183,0.32,3.219c0.047,1.053-0.013,2.111-0.028,3.402   c0.563-0.579,1.471-0.328,1.459-1.338c-0.023-1.961,0.012-3.923,0.023-5.947C50.075,71.21,49.465,71.438,48.908,71.647z"/><path fill="none" d="M74.485,61.404c-0.009,0.214-0.06,0.425-0.075,0.639c-0.12,1.704-0.237,3.408-0.356,5.136   c1.499-0.299,1.65-0.459,1.74-1.766c0.136-1.97,0.272-3.941,0.412-5.966c-0.5,0.183-1.177,0.295-1.653,0.665   C74.331,60.285,74.505,60.958,74.485,61.404z"/><path fill="none" d="M85.992,55.247c-0.325,2.192-0.631,4.387-0.966,6.747c0.812-0.385,1.585-0.636,2.203-1.096   c0.279-0.207,0.257-0.828,0.355-1.265c0.1-0.444,0.203-0.889,0.263-1.339c0.197-1.463,0.375-2.929,0.575-4.516   c-0.812,0.389-1.49,0.698-2.149,1.043C86.14,54.891,86.015,55.091,85.992,55.247z"/><path fill="none" d="M88.694,60.232c0.535-0.235,0.954-0.48,1.407-0.604c0.994-0.273,1.219-0.972,1.382-1.9   c0.234-1.331,0.671-2.628,1.057-3.929c0.207-0.699,0.488-1.376,0.799-2.238c-1.411,0.64-2.622,1.189-3.669,1.664   C89.34,55.588,89.029,57.822,88.694,60.232z"/><path fill="none" d="M77.45,60.202c-0.013,0.213-0.078,0.423-0.093,0.637c-0.12,1.678-0.234,3.356-0.356,5.13   c1.567-0.547,1.568-0.547,1.662-2.037c0.103-1.634,0.207-3.269,0.304-4.903c0.012-0.197-0.019-0.397-0.03-0.613   C77.528,58.837,77.531,58.838,77.45,60.202z"/><path fill="none" d="M60.886,67.219c-0.052,2.025-0.258,4.046-0.398,6.067c1.668-0.444,1.692-0.471,2.012-2.207   c0.034-0.184,0.093-0.364,0.118-0.548c0.247-1.86,0.489-3.721,0.749-5.712C62.192,65.417,60.928,65.598,60.886,67.219z"/><path fill="none" d="M54.776,69.188c-0.09,0.039-0.059,0.392-0.059,0.6c-0.003,0.883,0.009,1.766,0.005,2.649   c-0.006,1.113-0.022,2.226-0.034,3.365c1.411-0.387,1.383-0.391,1.441-1.576c0.077-1.572,0.183-3.144,0.33-4.711   c0.039-0.417,0.031-0.924,0.459-1.159C56.199,68.623,55.478,68.883,54.776,69.188z"/><path fill="none" d="M70.452,68.758c1.849-0.371,2.027-0.551,2.256-2.217c0.026-0.186,0.068-0.369,0.087-0.556   c0.19-1.82,0.376-3.641,0.573-5.558c-0.887,0.31-1.712,0.599-2.485,0.869C71.563,63.869,70.583,66.286,70.452,68.758z"/><path fill="none" d="M57.187,68.255c0.153,0.222,0.437,0.445,0.438,0.667c0.001,1.091-0.067,2.182-0.125,3.273   c-0.043,0.808-0.109,1.614-0.166,2.449c1.042-0.202,1.551-0.688,1.502-1.675c-0.017-0.342,0.085-0.69,0.137-1.034   c0.27-1.764,0.541-3.528,0.812-5.291c-0.051-0.058-0.102-0.117-0.153-0.175C58.818,67.064,58.005,67.661,57.187,68.255z"/><path fill="none" d="M68.029,63.382c-0.092,1.658-0.297,3.31-0.449,4.965c-0.05,0.541-0.077,1.085-0.116,1.647   c1.55-0.391,1.549-0.391,1.728-1.833c0.036-0.293,0.088-0.583,0.131-0.875c0.271-1.827,0.541-3.654,0.841-5.683   c-0.509,0.192-0.797,0.327-1.1,0.409C68.355,62.204,68.071,62.623,68.029,63.382z"/><path fill="none" d="M64.493,65.77c0.035,0.146-0.039,0.317-0.05,0.477c-0.126,1.802-0.25,3.604-0.374,5.412   c0.783-0.409,1.938-0.555,1.796-1.971c-0.007-0.074,0.053-0.152,0.064-0.231c0.291-2.062,0.58-4.124,0.892-6.345   C65.483,63.708,64.05,63.943,64.493,65.77z"/><path d="M94.98,51.291c-0.098-0.689,0.114-1.52-0.969-1.641c-0.174-0.019-0.322-0.262-0.484-0.399   c-1.451-1.228-2.79-2.63-4.376-3.647c-3.724-2.388-7.57-4.584-11.358-6.871c-2.916-1.761-5.787-3.598-8.735-5.303   c-6.393-3.698-12.616-7.639-18.555-12.045c-2.898-2.15-6.051-3.959-9.11-5.888c-0.239-0.151-0.649-0.03-0.979-0.036   c-0.005,0.303-0.073,0.621-0.002,0.904c0.149,0.595,0.345,1.182,0.566,1.755c1.092,2.824,2.232,5.629,3.291,8.466   c0.973,2.608,1.881,5.241,2.783,7.874c0.361,1.053,0.632,2.137,0.962,3.267c-0.288,0.012-0.421,0.032-0.551,0.021   c-3.262-0.266-6.523-0.551-9.786-0.801c-3.829-0.294-7.659-0.575-11.491-0.827c-1.686-0.111-3.378-0.18-5.067-0.192   c-1.821-0.013-3.644,0.135-5.463,0.085c-2.762-0.077-5.522-0.26-8.282-0.412c-0.43-0.024-0.741,0.027-0.8,0.539   c-0.061,0.531-0.177,1.056-0.235,1.588c-0.427,3.923-0.858,7.845-1.263,11.769c-0.27,2.62,0.166,5.117,1.322,7.501   c0.417,0.86,0.716,1.787,0.98,2.709c0.302,1.052,0.681,1.335,1.792,1.241c1.496-0.127,2.995-0.239,4.494-0.306   c2.893-0.129,5.788-0.31,8.682-0.304c2.325,0.005,4.656,0.186,6.972,0.415c1.999,0.198,3.972,0.715,5.972,0.838   c2.455,0.151,4.927,0.036,7.392,0.042c0.277,0.001,0.554,0.036,0.988,0.066c-1.061,1.795-2.042,3.452-3.02,5.111   c-1.538,2.61-3.098,5.207-4.583,7.847c-0.202,0.359-0.101,0.952,0.005,1.403c0.098,0.418,0.449,0.772,0.586,1.188   c0.787,2.38,1.543,4.77,2.367,7.335c1.949-0.892,3.68-1.714,5.434-2.482c4.495-1.969,9.001-3.915,13.504-5.865   c0.187-0.081,0.47-0.219,0.585-0.143c0.64,0.422,0.913,0.052,1.189-0.449c0.094-0.171,0.265-0.34,0.442-0.42   c2.931-1.328,5.863-2.656,8.807-3.956c3.877-1.712,7.794-3.337,11.639-5.117c3.577-1.656,7.059-3.515,10.633-5.179   c1.046-0.487,1.605-1.179,1.664-2.229c0.097-1.724,0.688-3.289,1.259-4.884C94.482,53.019,95.121,52.277,94.98,51.291z    M9.099,59.211c-0.83-1.817-1.61-3.526-2.431-5.323c1.164,0.141,2.191,0.265,3.095,0.374c0.482,1.619,0.943,3.166,1.439,4.831   C10.474,59.133,9.724,59.176,9.099,59.211z M13.215,58.94c-0.169-0.001-0.427-0.228-0.492-0.406   c-0.495-1.351-0.951-2.715-1.464-4.202c1.139,0.15,2.134,0.282,2.963,0.391c0.407,1.42,0.784,2.737,1.177,4.111   C14.744,58.872,13.979,58.943,13.215,58.94z M16.798,57.716c-0.468-0.887-0.747-1.873-1.153-2.925   c0.75-0.014,1.357-0.025,1.999-0.037c0.217,0.707,0.397,1.373,0.628,2.02c0.224,0.626,0.5,1.233,0.781,1.916   C17.529,58.957,17.47,58.988,16.798,57.716z M20.636,58.077c-0.431-1.03-0.856-2.062-1.319-3.178   c1.416-0.16,1.412-0.158,1.775,0.971c0.286,0.89,0.584,1.776,0.881,2.676C21.38,58.846,20.912,58.737,20.636,58.077z M25.711,58.61   c-2.332,0.053-1.941,0.183-2.687-1.669c-0.257-0.638-0.412-1.317-0.674-2.177c0.761,0.052,1.39,0.082,2.014,0.151   c0.117,0.013,0.268,0.167,0.314,0.29c0.207,0.551,0.362,1.121,0.573,1.67c0.21,0.547,0.464,1.077,0.714,1.648   C25.811,58.577,25.761,58.609,25.711,58.61z M27.116,57.687c-0.232-0.913-0.7-1.765-1.133-2.811   c0.675,0.047,1.124,0.061,1.567,0.119c0.128,0.017,0.309,0.134,0.348,0.246c0.409,1.181,0.795,2.371,1.216,3.645   C28.099,58.855,27.387,58.753,27.116,57.687z M30.239,57.915c-0.114-0.468-0.232-0.935-0.374-1.395   c-0.134-0.43-0.302-0.85-0.458-1.281c1.223-0.248,1.304-0.161,1.663,0.925c0.365,1.107,0.829,2.181,1.248,3.267   C30.792,59.514,30.593,59.367,30.239,57.915z M33.698,59.689c-0.491-1.435-0.971-2.839-1.472-4.305   c0.167-0.04,0.218-0.062,0.27-0.063c1.368-0.011,1.362-0.009,1.763,1.291c0.322,1.043,0.659,2.082,1.008,3.184   C34.723,59.76,34.188,59.723,33.698,59.689z M36.98,60.004c-0.179-0.024-0.417-0.248-0.476-0.429   c-0.427-1.32-0.815-2.653-1.28-4.195c0.746,0.051,1.301,0.07,1.85,0.141c0.144,0.019,0.35,0.18,0.387,0.315   c0.373,1.361,0.717,2.731,1.102,4.226C38.014,60.048,37.49,60.072,36.98,60.004z M39.601,59.006   c-0.238-1.083-0.537-2.152-0.841-3.352c0.645,0.044,1.115,0.077,1.573,0.109c0.166,0.737,0.319,1.436,0.482,2.132   c0.157,0.669,0.326,1.335,0.489,1.999C40.092,60.253,39.84,60.096,39.601,59.006z M42.311,58.854   c-0.238-0.956-0.468-1.915-0.731-2.992c0.468,0.032,0.879,0.061,1.276,0.088c0.368,1.33,0.728,2.629,1.092,3.943   C42.603,60.012,42.6,60.013,42.311,58.854z M43.945,56.042c0.989,0.068,1.889,0.13,2.896,0.2c-0.598,0.998-1.122,1.872-1.732,2.89   C44.688,58.013,44.328,57.057,43.945,56.042z M40.041,82.335c-0.756-2.001-1.49-3.945-2.238-5.925   c0.177-0.102,0.356-0.214,0.542-0.311c0.733-0.382,1.468-0.759,2.157-1.114c0.59,2.127,1.165,4.199,1.768,6.375   C41.508,81.693,40.761,82.02,40.041,82.335z M44.379,80.356c-0.252,0.07-0.482,0.217-0.832,0.38   c-0.612-2.067-0.762-4.258-2.136-6.031c0.899-0.366,1.733-0.706,2.474-1.008c0.364,1.834,0.669,3.649,1.104,5.432   C45.159,79.826,45.058,80.168,44.379,80.356z M47.878,77.637c0.057,1.316,0.064,1.316-1.396,1.743   c-0.31-1.709-0.636-3.403-0.92-5.103c-0.215-1.289-0.192-1.295,1.034-1.765c0.296-0.114,0.599-0.208,1.056-0.366   c0.091,1.527,0.182,2.907,0.252,4.288C47.924,76.834,47.861,77.237,47.878,77.637z M50.659,76.93   c0.012,1.01-0.896,0.76-1.459,1.338c0.016-1.29,0.075-2.348,0.028-3.402c-0.046-1.037-0.201-2.068-0.32-3.219   c0.557-0.209,1.167-0.437,1.774-0.664C50.671,73.006,50.636,74.968,50.659,76.93z M53.397,74.926   c0.036,1.672,0.288,1.469-1.647,2.062c-0.075-2.109,0.572-4.18-0.179-6.312c0.482-0.219,1.098-0.499,1.835-0.834   c0.016,0.525,0.044,0.962,0.039,1.399C53.433,72.47,53.37,73.699,53.397,74.926z M56.459,69.515   c-0.147,1.567-0.253,3.139-0.33,4.711c-0.058,1.185-0.03,1.19-1.441,1.576c0.012-1.139,0.028-2.252,0.034-3.365   c0.004-0.883-0.008-1.766-0.005-2.649c0.001-0.208-0.031-0.56,0.059-0.6c0.702-0.305,1.423-0.566,2.141-0.833   C56.49,68.591,56.498,69.097,56.459,69.515z M58.972,71.934c-0.053,0.344-0.154,0.693-0.137,1.034   c0.049,0.987-0.46,1.473-1.502,1.675c0.058-0.835,0.123-1.641,0.166-2.449c0.058-1.091,0.126-2.182,0.125-3.273   c0-0.223-0.284-0.445-0.438-0.667c0.818-0.593,1.631-1.19,2.445-1.787c0.051,0.058,0.102,0.117,0.153,0.175   C59.513,68.407,59.242,70.17,58.972,71.934z M62.618,70.53c-0.024,0.185-0.084,0.365-0.118,0.548   c-0.319,1.736-0.344,1.763-2.012,2.207c0.139-2.021,0.345-4.042,0.398-6.067c0.042-1.621,1.306-1.802,2.481-2.4   C63.107,66.809,62.865,68.67,62.618,70.53z M65.928,69.457c-0.011,0.079-0.071,0.157-0.064,0.231   c0.143,1.416-1.013,1.562-1.796,1.971c0.125-1.808,0.248-3.61,0.374-5.412c0.011-0.16,0.085-0.331,0.05-0.477   c-0.443-1.827,0.99-2.062,2.327-2.657C66.508,65.334,66.219,67.396,65.928,69.457z M69.323,67.285   c-0.043,0.292-0.095,0.583-0.131,0.875c-0.179,1.443-0.177,1.443-1.728,1.833c0.039-0.562,0.066-1.106,0.116-1.647   c0.152-1.655,0.357-3.307,0.449-4.965c0.042-0.759,0.326-1.178,1.036-1.37c0.303-0.082,0.591-0.217,1.1-0.409   C69.864,63.632,69.594,65.459,69.323,67.285z M72.796,65.986c-0.019,0.186-0.062,0.37-0.087,0.556   c-0.23,1.666-0.408,1.846-2.256,2.217c0.13-2.473,1.111-4.89,0.432-7.461c0.772-0.27,1.598-0.559,2.485-0.869   C73.172,62.345,72.986,64.165,72.796,65.986z M75.794,65.413c-0.09,1.307-0.241,1.468-1.74,1.766   c0.119-1.729,0.236-3.433,0.356-5.136c0.015-0.214,0.066-0.425,0.075-0.639c0.019-0.446-0.154-1.119,0.068-1.292   c0.476-0.37,1.153-0.482,1.653-0.665C76.066,61.472,75.931,63.443,75.794,65.413z M78.662,63.931   c-0.094,1.49-0.095,1.49-1.662,2.037c0.122-1.774,0.236-3.452,0.356-5.13c0.015-0.213,0.08-0.423,0.093-0.637   c0.081-1.364,0.078-1.364,1.486-1.787c0.012,0.216,0.042,0.416,0.03,0.613C78.87,60.662,78.766,62.297,78.662,63.931z    M81.519,58.218c-0.174,1.761-0.36,3.521-0.524,5.283c-0.056,0.601-0.379,0.899-1.065,1.034c0.031-0.444,0.074-0.833,0.081-1.222   c0.031-1.635,0.086-3.271,0.063-4.906c-0.015-1.09,0.977-0.739,1.51-1.119C81.563,57.598,81.549,57.909,81.519,58.218z    M72.313,59.129c-3.086,1.302-6.181,2.592-9.205,4.028c-3.827,1.817-7.571,3.808-11.384,5.657   c-1.323,0.642-2.743,1.083-4.116,1.621c-2.646,1.037-5.292,2.073-7.932,3.122c-0.442,0.176-0.857,0.421-1.42,0.534   c0.214-0.406,0.408-0.823,0.644-1.216c2.202-3.682,4.451-7.337,6.602-11.049c1.047-1.807,1.919-3.715,2.866-5.58   c0.288-0.568,0.286-1.037-0.452-1.246c-0.838-0.238-1.661-0.652-2.51-0.709c-5.572-0.376-11.147-0.742-16.726-0.982   c-4.449-0.191-8.908-0.151-13.359-0.303c-2.705-0.092-5.404-0.355-8.252-0.552c0.365-5.293,0.723-10.487,1.087-15.76   c0.404,0.028,0.874,0.057,1.344,0.093c3.636,0.28,7.252,0.672,10.922,0.647c3.882-0.026,7.771,0.379,11.65,0.689   c4.413,0.353,8.817,0.825,13.227,1.21c1.012,0.089,2.037,0.076,3.054,0.039c0.779-0.028,1.415-1.254,1.131-2.228   c-0.345-1.183-0.767-2.343-1.174-3.507c-0.76-2.174-1.5-4.355-2.311-6.51c-0.745-1.981-1.565-3.935-2.366-5.895   c-0.513-1.256-1.05-2.502-1.577-3.752c0.041-0.041,0.081-0.081,0.122-0.122c2.193,1.467,4.456,2.841,6.565,4.419   c4.667,3.491,9.413,6.849,14.434,9.819c4.249,2.513,8.421,5.158,12.653,7.7c3.335,2.004,6.755,3.869,10.051,5.933   c1.97,1.234,3.779,2.725,5.646,4.121c0.336,0.251,0.597,0.604,0.968,0.988c-0.836,0.368-1.59,0.686-2.333,1.03   c-2.629,1.217-5.227,2.503-7.885,3.651C78.978,56.446,75.622,57.733,72.313,59.129z M83.725,62.299   c-0.074,0.403-0.777,0.69-1.33,1.147c-0.026-0.418-0.061-0.617-0.048-0.812c0.111-1.682,0.273-3.362,0.329-5.046   c0.025-0.753,0.207-1.263,0.971-1.497c0.32-0.098,0.606-0.307,1.042-0.537C84.369,57.916,84.125,60.122,83.725,62.299z    M87.847,58.293c-0.061,0.45-0.164,0.895-0.263,1.339c-0.098,0.437-0.076,1.058-0.355,1.265c-0.618,0.46-1.391,0.711-2.203,1.096   c0.334-2.36,0.641-4.554,0.966-6.747c0.023-0.156,0.147-0.356,0.282-0.427c0.659-0.346,1.336-0.654,2.149-1.043   C88.222,55.364,88.044,56.83,87.847,58.293z M92.539,53.798c-0.386,1.301-0.823,2.599-1.057,3.929   c-0.163,0.927-0.388,1.627-1.382,1.9c-0.452,0.124-0.871,0.369-1.407,0.604c0.335-2.41,0.646-4.644,0.975-7.007   c1.047-0.475,2.258-1.024,3.669-1.664C93.027,52.422,92.746,53.099,92.539,53.798z"/></g></svg>
